Format                                   : Matroska
Format version                           : Version 2
File size                                : 1.36 GiB
Duration                                 : 1h 58mn
Overall bit rate                         : 1 654 Kbps
Movie name                               : Krishna Aur Kans [2012].720p.BRRip.x264.[Dual Audio].6Ch.[Hindi+English].by K@rtik [ExD Exclusive] 
Codec ID                                 : V_MPEG4/ISO/AVC
Duration                                 : 1h 58mn
Bit rate                                 : 1 205 Kbps
Width                                    : 1 280 pixels
Height                                   : 544 pixels
Display aspect ratio                     : 2.35:1
Frame rate                               : 23.976 fps
Color space                              : YUV
Chroma subsampling                       : 4:2:0
Stream size                              : 991 MiB (71%)
Title                                    : K@rtik
Codec ID                                 : A_AC3
Duration                                 : 1h 58mn
Bit rate                                 : 224 Kbps
Channel(s)                               : 6 channels
Channel positions                        : Front: L C R, Side: L R, LFE
Sampling rate                            : 48.0 KHz
Stream size                              : 189 MiB (14%)
Title                                    : K@rtik
Language                                 : Hindi 
http://img210.imageshack.us/img210/5512/exdp.jpg 
http://img401.imageshack.us/img401/8336/64847437.png 
http://img222.imageshack.us/img222/9924/90221155.png 
http://img696.imageshack.us/img696/7758/54109357.png 
http://img201.imageshack.us/img201/161/84902989.png 
http://img204.imageshack.us/img204/5544/21607374.png 
http://img99.imageshack.us/img99/6907/71280363.png 
http://img839.imageshack.us/img839/1060/23930133.png 
http://img854.imageshack.us/img854/4932/85190772.png 
http://img401.imageshack.us/img401/8494/81719469.png 
http://img829.imageshack.us/img829/5623/39023821.png 
http://img809.imageshack.us/img809/7197/63173018.png 
http://img222.imageshack.us/img222/4091/27298923.png 
http://img832.imageshack.us/img832/6125/16610301.png
